# xmcd
#
# Track frame offsets:
# 150
# 22430
# 35055
# 55725
# 75820
# 87005
# 107468
# 126800
# 148660
# 170955
# 187593
#
# Disc length: 2677 seconds
#
# Revision: 0
# Processed by: cddbd v1.5.2PL0 Copyright (c) Steve Scherf et al.
# Submitted via: Audion 3.0.2 (http://www.panic.com/audion/)
#
DISCID=890a730b
DTITLE=Tuck& Patti - Dream
DYEAR=1900
DGENRE=
TTITLE0=Dream
TTITLE1=One hand, One hearth
TTITLE2=Togetherness
TTITLE3=Friends in high places
TTITLE4=The voodoo music
TTITLE5=From now on
TTITLE6=I wish
TTITLE7=Sitting in limbo
TTITLE8=High heel blues
TTITLE9=All the love
TTITLE10=As time go by
EXTD=
EXTT0=
EXTT1=
EXTT2=
EXTT3=
EXTT4=
EXTT5=
EXTT6=
EXTT7=
EXTT8=
EXTT9=
EXTT10=
PLAYORDER=
